<svg width="76" height="58" viewBox="0 0 76 58" fill="none" xmlns="http://www.w3.org/2000/svg">
<g filter="url(#filter0_dd_2641_6980)">
<path d="M38 8L55.3205 18V38L38 48L20.6795 38V18L38 8Z" fill="#03A9F4"/>
</g>
<path d="M44.3554 24.7901C44.3655 24.9301 44.3655 25.0701 44.3655 25.2101C44.3655 29.4801 41.066 34.4001 35.0356 34.4001C33.1777 34.4001 31.4518 33.8701 30 32.9501C30.264 32.9801 30.5178 32.9901 30.7919 32.9901C32.3249 32.9901 33.736 32.4801 34.863 31.6101C33.4213 31.5801 32.2132 30.6501 31.7969 29.3701C32 29.4001 32.203 29.4201 32.4163 29.4201C32.7107 29.4201 33.0051 29.3801 33.2792 29.3101C31.7767 29.0101 30.6497 27.7101 30.6497 26.1401V26.1001C31.0863 26.3401 31.5939 26.4901 32.1319 26.5101C31.2487 25.9301 30.67 24.9401 30.67 23.8201C30.67 23.2201 30.8324 22.6701 31.1167 22.1901C32.7309 24.1501 35.1574 25.4301 37.8782 25.5701C37.8274 25.3301 37.7969 25.0801 37.7969 24.8301C37.7969 23.0501 39.2589 21.6001 41.0761 21.6001C42.0203 21.6001 42.8731 21.9901 43.4721 22.6201C44.2132 22.4801 44.9238 22.2101 45.5533 21.8401C45.3096 22.5901 44.7919 23.2201 44.1117 23.6201C44.7716 23.5501 45.4112 23.3701 46 23.1201C45.5534 23.7601 44.995 24.3301 44.3554 24.7901Z" fill="#F4F1FE"/>
<defs>
<filter id="filter0_dd_2641_6980" x="0.679443" y="0" width="74.6411" height="80" filterUnits="userSpaceOnUse" color-interpolation-filters="sRGB">
<feFlood flood-opacity="0" result="BackgroundImageFix"/>
<feColorMatrix in="SourceAlpha" type="matrix" values="0 0 0 0 0 0 0 0 0 0 0 0 0 0 0 0 0 0 127 0" result="hardAlpha"/>
<feMorphology radius="4" operator="erode" in="SourceAlpha" result="effect1_dropShadow_2641_6980"/>
<feOffset dy="12"/>
<feGaussianBlur stdDeviation="12"/>
<feColorMatrix type="matrix" values="0 0 0 0 0 0 0 0 0 0 0 0 0 0 0 0 0 0 0.12 0"/>
<feBlend mode="normal" in2="BackgroundImageFix" result="effect1_dropShadow_2641_6980"/>
<feColorMatrix in="SourceAlpha" type="matrix" values="0 0 0 0 0 0 0 0 0 0 0 0 0 0 0 0 0 0 127 0" result="hardAlpha"/>
<feOffset/>
<feGaussianBlur stdDeviation="1"/>
<feComposite in2="hardAlpha" operator="out"/>
<feColorMatrix type="matrix" values="0 0 0 0 0 0 0 0 0 0 0 0 0 0 0 0 0 0 0.2 0"/>
<feBlend mode="normal" in2="effect1_dropShadow_2641_6980" result="effect2_dropShadow_2641_6980"/>
<feBlend mode="normal" in="SourceGraphic" in2="effect2_dropShadow_2641_6980" result="shape"/>
</filter>
</defs>
</svg>
